# xmcd CD database file
#
# Track frame offsets:
#	150
#	12647
#	29942
#	65965
#	103740
#	128747
#	155805
#	193025
#	226582
#	246857
#
# Disc length: 3795 seconds
#
# Revision: 0
# Processed by: cddbd v1.4b42PL1 Copyright (c) Steve Scherf et al.
# Submitted via: CdAid 2001.05.15.01
#
DISCID=920ed10a
DTITLE=Cyclones - Twist That
DYEAR=1900
DGENRE=
TTITLE0=Dang!
TTITLE1=Cheap Perfume
TTITLE2=Talkin' Loud
TTITLE3=Shame on You
TTITLE4=24 Hours
TTITLE5=Take Me To The River
TTITLE6=Love Was Worth These Blues
TTITLE7=Outside
TTITLE8=All Your Love
TTITLE9=Boilermaker
EXTD=
EXTT0=
EXTT1=
EXTT2=
EXTT3=
EXTT4=
EXTT5=
EXTT6=
EXTT7=
EXTT8=
EXTT9=
PLAYORDER=
